<?xml version="1.0" encoding="utf-8"?>
<!-- Generator: Adobe Illustrator 16.0.0, SVG Export Plug-In . SVG Version: 6.00 Build 0)  -->
<!DOCTYPE svg PUBLIC "-//W3C//DTD SVG 1.1//EN" "http://www.w3.org/Graphics/SVG/1.1/DTD/svg11.dtd">
<svg version="1.1" id="Layer_1" xmlns="http://www.w3.org/2000/svg" xmlns:xlink="http://www.w3.org/1999/xlink" x="0px" y="0px"
	 width="72px" height="72.02px" viewBox="14 13.98 72 72.02" enable-background="new 14 13.98 72 72.02" xml:space="preserve">
<g id="Captions">
</g>
<g id="Layer_7" display="none">
	<path display="inline" d="M60.268,14.063L14.065,60.27l25.668,25.668l46.201-46.205v-25.67H60.268z M72.624,32.219
		c-2.671,0-4.84-2.174-4.84-4.841c0-2.678,2.169-4.844,4.84-4.844s4.836,2.166,4.836,4.844
		C77.46,30.045,75.295,32.219,72.624,32.219z"/>
</g>
<g id="Your_Icon" display="none">
	<path display="inline" d="M71.686,85.706L69,60l16.982-17.541L62,39L50.001,13.98L38,39l-23.982,3.284L31,60l-2.692,25.676
		L49.98,72c0.017,0,0.028,0,0.049,0L71.686,85.706z"/>
</g>
<g id="Layer_6" display="none">
	<path display="inline" d="M50,17.06c-18.194,0-32.941,14.747-32.941,32.945C17.06,68.191,31.806,82.939,50,82.939
		c18.191,0,32.939-14.748,32.939-32.936C82.939,31.807,68.191,17.06,50,17.06z M53.117,73.732V61.98H47.13V73.77
		c-10.93-1.312-19.61-10-20.905-20.938H37.98v-5.993H26.275c1.429-10.777,10.036-19.306,20.855-20.605v11.456h5.987V26.27
		c10.701,1.403,19.188,9.875,20.609,20.568H62.273v5.993h11.5C72.488,63.684,63.932,72.316,53.117,73.732z"/>
</g>
<g id="Layer_5" display="none">
	<rect x="14" y="36" display="inline" width="72" height="27"/>
</g>
<g id="Layer_4">
	<polygon fill="#C0E2FD" points="14.033,14.036 44.019,14.036 80,50.018 44.019,86 14.033,86 50.016,50.018 	"/>
</g>
</svg>
